<svg width="30" height="30" viewBox="0 0 30 30" fill="none" xmlns="http://www.w3.org/2000/svg">
<g clip-path="url(#clip0_2_2)">
<path d="M15 0C12.0333 0 9.13319 0.879735 6.66645 2.52796C4.19972 4.17618 2.27713 6.51886 1.14181 9.25975C0.00649929 12.0006 -0.290551 15.0166 0.288228 17.9264C0.867006 20.8361 2.29562 23.5088 4.39341 25.6066C6.49119 27.7044 9.16394 29.133 12.0737 29.7118C14.9834 30.2906 17.9994 29.9935 20.7403 28.8582C23.4812 27.7229 25.8238 25.8003 27.4721 23.3336C29.1203 20.8668 30 17.9667 30 15C30 11.0218 28.4197 7.20644 25.6066 4.3934C22.7936 1.58035 18.9783 0 15 0ZM15 27.5C12.5277 27.5 10.111 26.7669 8.05538 25.3934C5.99976 24.0199 4.39761 22.0676 3.45151 19.7835C2.50542 17.4995 2.25788 14.9861 2.74019 12.5614C3.22251 10.1366 4.41302 7.90932 6.16117 6.16117C7.90933 4.41301 10.1366 3.2225 12.5614 2.74018C14.9861 2.25787 17.4995 2.50541 19.7835 3.45151C22.0676 4.3976 24.0199 5.99976 25.3934 8.05537C26.7669 10.111 27.5 12.5277 27.5 15C27.5 16.6415 27.1767 18.267 26.5485 19.7835C25.9203 21.3001 24.9996 22.6781 23.8388 23.8388C22.6781 24.9996 21.3001 25.9203 19.7835 26.5485C18.267 27.1767 16.6415 27.5 15 27.5Z" fill="black"/>
<path d="M15 17.5875C14.569 17.5875 14.1557 17.4163 13.851 17.1115C13.5462 16.8068 13.375 16.3935 13.375 15.9625V8.46249C13.375 8.03152 13.5462 7.61819 13.851 7.31345C14.1557 7.0087 14.569 6.83749 15 6.83749C15.431 6.83749 15.8443 7.0087 16.149 7.31345C16.4538 7.61819 16.625 8.03152 16.625 8.46249V15.9625C16.625 16.3935 16.4538 16.8068 16.149 17.1115C15.8443 17.4163 15.431 17.5875 15 17.5875Z" fill="black"/>
<path d="M14.9375 23.15C15.973 23.15 16.8125 22.3105 16.8125 21.275C16.8125 20.2395 15.973 19.4 14.9375 19.4C13.902 19.4 13.0625 20.2395 13.0625 21.275C13.0625 22.3105 13.902 23.15 14.9375 23.15Z" fill="black"/>
</g>
<defs>
<clipPath id="clip0_2_2">
<rect width="30" height="30" fill="white"/>
</clipPath>
</defs>
</svg>
